<?xml version="1.0" encoding="UTF-8"?>
<svg id="Layer_2" data-name="Layer 2" xmlns="http://www.w3.org/2000/svg" viewBox="0 0 963.93 417.04">
  <defs>
    <style>
      .cls-1 {
        fill: #fff;
      }
    </style>
  </defs>
  <g id="Layer_1-2" data-name="Layer 1">
    <path class="cls-1" d="M341.13,103.09c0-13.42-7.87-20.13-23.6-20.13h-11.62v40.71h11.62c15.73,0,23.6-6.86,23.6-20.59Z"/>
    <path class="cls-1" d="M112.72,103.09c0-13.42-7.87-20.13-23.6-20.13h-11.62v40.71h11.62c15.73,0,23.6-6.86,23.6-20.59Z"/>
    <path class="cls-1" d="M412.93.74v-.05L0,0v417.04h963.93V.74H412.93ZM276.36,60.37h46.29c33.05,0,49.58,13.88,49.58,41.63,0,13.12-4.74,23.73-14.22,31.83-9.48,8.11-22.15,12.16-38,12.16h-14.09v45h-29.55V60.37ZM160.2,97.72h28.91v14.76h.37c6.89-11.36,16.92-17.03,30.09-17.03,20.73,0,31.1,12.81,31.1,38.44v57.11h-28.81v-51.83c0-14.45-5.18-21.68-15.55-21.68-5,0-9.12,1.91-12.35,5.74s-4.85,8.69-4.85,14.58v53.19h-28.91v-93.27ZM47.96,60.37h46.28c33.05,0,49.58,13.88,49.58,41.63,0,13.12-4.74,23.73-14.22,31.83-9.48,8.11-22.15,12.16-38,12.16h-14.09v45h-29.55V60.37ZM950.5,403.61H13.43v-152.23l385.88.65v.07h551.18v151.51ZM950.5,237.91H412.93V14.18h537.56v223.73Z"/>
    <g>
      <path class="cls-1" d="M167.94,376.81c-7.67,3.71-17.68,5.57-30.03,5.57-16.11,0-28.78-4.74-38.01-14.21-9.23-9.47-13.84-22.09-13.84-37.87,0-16.8,5.19-30.42,15.56-40.87,10.38-10.45,23.84-15.67,40.39-15.67,10.25,0,18.9,1.29,25.93,3.88v22.78c-7.03-4.2-15.04-6.3-24.02-6.3-9.86,0-17.82,3.1-23.88,9.3-6.06,6.2-9.08,14.6-9.08,25.2s2.86,18.25,8.57,24.28c5.71,6.03,13.4,9.05,23.07,9.05s17.67-2.25,25.34-6.74v21.61Z"/>
      <path class="cls-1" d="M219.72,382.37c-12.5,0-22.33-3.5-29.48-10.51-7.15-7.01-10.73-16.52-10.73-28.53s3.71-22.11,11.13-29.11c7.42-7.01,17.46-10.51,30.1-10.51s22.22,3.5,29.3,10.51c7.08,7.01,10.62,16.27,10.62,27.8,0,12.45-3.65,22.29-10.95,29.52-7.3,7.23-17.3,10.84-29.99,10.84ZM220.3,321.44c-5.47,0-9.72,1.88-12.74,5.64-3.03,3.76-4.54,9.08-4.54,15.97,0,14.4,5.81,21.61,17.43,21.61s16.63-7.4,16.63-22.19c0-14.01-5.59-21.02-16.77-21.02Z"/>
      <path class="cls-1" d="M394.77,380.54h-23.07v-42.77c0-10.89-4-16.33-12.01-16.33-3.81,0-6.91,1.64-9.3,4.91-2.39,3.27-3.59,7.35-3.59,12.23v41.97h-23.14v-43.21c0-10.59-3.93-15.89-11.79-15.89-3.96,0-7.12,1.56-9.49,4.69-2.37,3.13-3.55,7.37-3.55,12.74v41.67h-23.14v-75h23.14v11.72h.29c2.39-4,5.75-7.26,10.07-9.78,4.32-2.51,9.05-3.77,14.17-3.77,10.59,0,17.85,4.66,21.75,13.99,5.71-9.33,14.11-13.99,25.2-13.99,16.31,0,24.46,10.06,24.46,30.18v46.66Z"/>
      <path class="cls-1" d="M532.17,380.54h-23.07v-42.77c0-10.89-4-16.33-12.01-16.33-3.81,0-6.91,1.64-9.3,4.91-2.39,3.27-3.59,7.35-3.59,12.23v41.97h-23.14v-43.21c0-10.59-3.93-15.89-11.79-15.89-3.96,0-7.12,1.56-9.49,4.69-2.37,3.13-3.55,7.37-3.55,12.74v41.67h-23.14v-75h23.14v11.72h.29c2.39-4,5.75-7.26,10.07-9.78,4.32-2.51,9.05-3.77,14.17-3.77,10.59,0,17.85,4.66,21.75,13.99,5.71-9.33,14.11-13.99,25.2-13.99,16.31,0,24.46,10.06,24.46,30.18v46.66Z"/>
      <path class="cls-1" d="M552.75,380.54v-105.03h37.21c37.3,0,55.96,17.07,55.96,51.2,0,16.36-5.09,29.42-15.27,39.18-10.18,9.77-23.74,14.65-40.69,14.65h-37.21ZM576.41,294.78v66.58h11.72c10.25,0,18.3-3.08,24.13-9.23,5.83-6.15,8.75-14.53,8.75-25.12,0-10.01-2.89-17.88-8.68-23.62-5.79-5.74-13.9-8.61-24.35-8.61h-11.57Z"/>
      <path class="cls-1" d="M696.82,382.37c-12.5,0-22.33-3.5-29.48-10.51-7.15-7.01-10.73-16.52-10.73-28.53s3.71-22.11,11.13-29.11c7.42-7.01,17.46-10.51,30.1-10.51s22.22,3.5,29.3,10.51c7.08,7.01,10.62,16.27,10.62,27.8,0,12.45-3.65,22.29-10.95,29.52-7.3,7.23-17.3,10.84-29.99,10.84ZM697.4,321.44c-5.47,0-9.72,1.88-12.74,5.64-3.03,3.76-4.54,9.08-4.54,15.97,0,14.4,5.81,21.61,17.43,21.61s16.63-7.4,16.63-22.19c0-14.01-5.59-21.02-16.77-21.02Z"/>
      <path class="cls-1" d="M809.61,377.83c-5.23,3.03-12.77,4.54-22.63,4.54-11.52,0-20.85-3.49-27.98-10.47-7.13-6.98-10.69-15.99-10.69-27.03,0-12.74,3.82-22.79,11.46-30.14,7.64-7.35,17.86-11.02,30.65-11.02,8.84,0,15.23,1.17,19.19,3.52v19.63c-4.83-3.61-10.23-5.42-16.19-5.42-6.64,0-11.9,1.94-15.78,5.82s-5.82,9.24-5.82,16.08,1.85,11.85,5.57,15.64c3.71,3.78,8.81,5.68,15.31,5.68,5.76,0,11.4-1.81,16.92-5.42v18.6Z"/>
      <path class="cls-1" d="M819.87,378.56v-18.75c3.81,2.3,7.6,4,11.39,5.13,3.78,1.12,7.36,1.68,10.73,1.68,4.1,0,7.33-.56,9.7-1.68,2.37-1.12,3.55-2.83,3.55-5.13,0-1.46-.54-2.68-1.61-3.66-1.08-.98-2.45-1.83-4.14-2.56s-3.53-1.39-5.53-1.98c-2-.59-3.93-1.25-5.79-1.98-2.98-1.12-5.6-2.33-7.87-3.63-2.27-1.29-4.17-2.79-5.71-4.5-1.54-1.71-2.71-3.69-3.52-5.93-.81-2.25-1.21-4.91-1.21-7.98,0-4.2.92-7.81,2.75-10.84,1.83-3.03,4.27-5.5,7.32-7.43,3.05-1.93,6.54-3.34,10.47-4.25,3.93-.9,8.02-1.35,12.27-1.35,3.32,0,6.69.26,10.11.77,3.42.51,6.79,1.26,10.11,2.23v17.87c-2.93-1.71-6.07-2.99-9.41-3.85-3.34-.85-6.63-1.28-9.85-1.28-1.51,0-2.94.14-4.29.4-1.34.27-2.53.66-3.55,1.17s-1.83,1.17-2.42,1.98-.88,1.72-.88,2.75c0,1.37.44,2.54,1.32,3.52.88.98,2.03,1.82,3.44,2.53,1.42.71,2.99,1.34,4.72,1.9,1.73.56,3.45,1.14,5.16,1.72,3.08,1.07,5.86,2.25,8.35,3.52,2.49,1.27,4.62,2.76,6.41,4.47,1.78,1.71,3.15,3.71,4.1,6.01.95,2.3,1.43,5.03,1.43,8.2,0,4.44-.96,8.24-2.89,11.39-1.93,3.15-4.49,5.71-7.69,7.69-3.2,1.98-6.88,3.42-11.06,4.32s-8.51,1.35-13,1.35c-8.25,0-15.89-1.27-22.92-3.81Z"/>
    </g>
    <g>
      <path class="cls-1" d="M596.16,189.33h-27.92v-75.09c0-8.11.35-17.07,1.05-26.87h-.7c-1.46,7.7-2.77,13.25-3.94,16.63l-29.41,85.33h-23.11l-29.93-84.46c-.82-2.28-2.13-8.11-3.94-17.5h-.79c.76,12.37,1.14,23.22,1.14,32.56v69.41h-25.47V63.82h41.4l25.64,74.39c2.04,5.95,3.53,11.93,4.46,17.94h.53c1.58-6.94,3.24-12.98,4.99-18.12l25.64-74.22h40.35v125.51Z"/>
      <path class="cls-1" d="M620.58,185.21v-24.07c8.4,6.13,18.2,9.19,29.41,9.19,7.06,0,12.56-1.52,16.5-4.55,3.94-3.03,5.91-7.26,5.91-12.69s-2.44-9.92-7.31-12.95c-4.87-3.03-11.57-4.55-20.09-4.55h-11.64v-21.18h10.76c16.34,0,24.51-5.43,24.51-16.28,0-10.21-6.27-15.32-18.82-15.32-8.4,0-16.57,2.71-24.51,8.14v-22.58c8.81-4.43,19.08-6.65,30.81-6.65,12.84,0,22.83,2.89,29.98,8.67,7.15,5.78,10.72,13.27,10.72,22.49,0,16.4-8.31,26.67-24.94,30.81v.44c8.87,1.11,15.87,4.33,21.01,9.67,5.13,5.34,7.7,11.89,7.7,19.65,0,11.73-4.29,21.01-12.87,27.83-8.58,6.83-20.42,10.24-35.53,10.24-12.95,0-23.49-2.1-31.6-6.3Z"/>
      <path class="cls-1" d="M810.6,147.58c0,6.19-1.08,11.96-3.24,17.33-2.16,5.37-5.16,10.02-9.01,13.96-3.85,3.94-8.43,7.03-13.74,9.28-5.31,2.25-11.12,3.37-17.42,3.37-7.06,0-13.38-1.31-18.95-3.94-5.57-2.63-10.28-6.43-14.13-11.42-3.85-4.99-6.8-11.1-8.84-18.34-2.04-7.23-3.06-15.43-3.06-24.59,0-10.79,1.33-20.58,3.98-29.36,2.65-8.78,6.45-16.29,11.38-22.54,4.93-6.24,10.9-11.07,17.9-14.49,7-3.41,14.88-5.12,23.63-5.12,9.68,0,17.21,1.14,22.58,3.41v23.11c-6.36-3.62-13.3-5.43-20.83-5.43-4.67,0-8.9.91-12.69,2.71-3.79,1.81-7.05,4.38-9.76,7.7-2.71,3.33-4.84,7.34-6.39,12.03-1.55,4.7-2.38,9.93-2.49,15.71h.53c5.95-8.23,14.73-12.34,26.34-12.34,5.19,0,9.89.93,14.09,2.8,4.2,1.87,7.79,4.51,10.76,7.92,2.98,3.41,5.28,7.51,6.91,12.3,1.63,4.79,2.45,10.1,2.45,15.93ZM783.55,149.33c0-13.48-5.51-20.22-16.54-20.22-2.51,0-4.78.47-6.83,1.4-2.04.93-3.79,2.25-5.25,3.94-1.46,1.69-2.58,3.69-3.37,6-.79,2.31-1.18,4.86-1.18,7.66,0,3.09.41,5.98,1.23,8.66.82,2.68,1.97,5.03,3.46,7.05,1.49,2.01,3.25,3.6,5.29,4.77,2.04,1.17,4.32,1.75,6.83,1.75s4.77-.51,6.78-1.53c2.01-1.02,3.73-2.45,5.16-4.29,1.43-1.84,2.52-4.06,3.28-6.65.76-2.6,1.14-5.44,1.14-8.53Z"/>
      <path class="cls-1" d="M828.98,186.09v-23.63c8.58,5.25,17.71,7.88,27.39,7.88,7.29,0,13-1.74,17.11-5.21,4.11-3.47,6.17-8.18,6.17-14.13,0-12.43-8.78-18.64-26.34-18.64-6.48,0-13.95.5-22.41,1.49l4.73-70.02h66.43v22.58h-45.34l-1.75,25.12c4.49-.35,8.37-.53,11.64-.53,12.89,0,22.99,3.38,30.28,10.15,7.29,6.77,10.94,15.87,10.94,27.31,0,12.66-4.35,23-13.04,31.03-8.69,8.02-20.48,12.03-35.36,12.03-12.08,0-22.23-1.81-30.46-5.43Z"/>
    </g>
  </g>
</svg>